<svg xmlns="http://www.w3.org/2000/svg" width="145.436" height="89.817" version="1.1"><g id="barcode_group"><rect width="100%" height="100%" style="fill:#fff"/><rect width="1.512" height="56.693" x="9.6" y="3.78" style="fill:#000"/><rect width=".756" height="56.693" x="11.868" y="3.78" style="fill:#000"/><rect width="2.268" height="56.693" x="14.135" y="3.78" style="fill:#000"/><rect width=".756" height="56.693" x="17.915" y="3.78" style="fill:#000"/><rect width="1.512" height="56.693" x="19.427" y="3.78" style="fill:#000"/><rect width="2.268" height="56.693" x="22.45" y="3.78" style="fill:#000"/><rect width=".756" height="56.693" x="26.23" y="3.78" style="fill:#000"/><rect width=".756" height="56.693" x="29.254" y="3.78" style="fill:#000"/><rect width="1.512" height="56.693" x="30.765" y="3.78" style="fill:#000"/><rect width=".756" height="56.693" x="34.545" y="3.78" style="fill:#000"/><rect width="3.024" height="56.693" x="36.057" y="3.78" style="fill:#000"/><rect width="2.268" height="56.693" x="39.836" y="3.78" style="fill:#000"/><rect width=".756" height="56.693" x="42.86" y="3.78" style="fill:#000"/><rect width="1.512" height="56.693" x="45.128" y="3.78" style="fill:#000"/><rect width="2.268" height="56.693" x="47.395" y="3.78" style="fill:#000"/><rect width=".756" height="56.693" x="51.175" y="3.78" style="fill:#000"/><rect width="2.268" height="56.693" x="52.687" y="3.78" style="fill:#000"/><rect width="3.024" height="56.693" x="55.71" y="3.78" style="fill:#000"/><rect width="2.268" height="56.693" x="59.49" y="3.78" style="fill:#000"/><rect width=".756" height="56.693" x="64.025" y="3.78" style="fill:#000"/><rect width="1.512" height="56.693" x="65.537" y="3.78" style="fill:#000"/><rect width="1.512" height="56.693" x="67.805" y="3.78" style="fill:#000"/><rect width=".756" height="56.693" x="72.34" y="3.78" style="fill:#000"/><rect width=".756" height="56.693" x="73.852" y="3.78" style="fill:#000"/><rect width=".756" height="56.693" x="76.12" y="3.78" style="fill:#000"/><rect width="3.024" height="56.693" x="77.631" y="3.78" style="fill:#000"/><rect width="2.268" height="56.693" x="81.411" y="3.78" style="fill:#000"/><rect width=".756" height="56.693" x="84.435" y="3.78" style="fill:#000"/><rect width="1.512" height="56.693" x="86.702" y="3.78" style="fill:#000"/><rect width="2.268" height="56.693" x="88.97" y="3.78" style="fill:#000"/><rect width=".756" height="56.693" x="92.75" y="3.78" style="fill:#000"/><rect width="2.268" height="56.693" x="94.261" y="3.78" style="fill:#000"/><rect width="3.024" height="56.693" x="97.285" y="3.78" style="fill:#000"/><rect width="1.512" height="56.693" x="101.065" y="3.78" style="fill:#000"/><rect width="3.024" height="56.693" x="103.332" y="3.78" style="fill:#000"/><rect width="1.512" height="56.693" x="107.112" y="3.78" style="fill:#000"/><rect width=".756" height="56.693" x="109.38" y="3.78" style="fill:#000"/><rect width="1.512" height="56.693" x="110.891" y="3.78" style="fill:#000"/><rect width="2.268" height="56.693" x="113.915" y="3.78" style="fill:#000"/><rect width="1.512" height="56.693" x="117.694" y="3.78" style="fill:#000"/><rect width=".756" height="56.693" x="121.474" y="3.78" style="fill:#000"/><rect width=".756" height="56.693" x="123.742" y="3.78" style="fill:#000"/><rect width="1.512" height="56.693" x="126.009" y="3.78" style="fill:#000"/><rect width="2.268" height="56.693" x="129.789" y="3.78" style="fill:#000"/><rect width=".756" height="56.693" x="132.813" y="3.78" style="fill:#000"/><rect width="1.512" height="56.693" x="134.324" y="3.78" style="fill:#000"/><text x="72.718" y="79.37" style="fill:#000;font-size:10pt;text-anchor:middle">1234-5678-9012</text></g></svg>