<svg xmlns="http://www.w3.org/2000/svg" width="64" height="64" viewBox="0 0 512 512"><path fill="#3a1e13" d="M160,144l-6.978-76.756a16,16,0,0,1,9.229-15.976l87.61-40.435a16,16,0,0,1,12.449-.406L348.8,43.693A16,16,0,0,1,359,59.956L352,144v16H160Z"/><polygon fill="#cce9ea" points="504 512 504 478.195 448 352 64 352 8 472 8 512 504 512"/><path fill="#354458" d="M120,496v16H384V496c-32-40-24-144-24-144H144S152,456,120,496Z"/><path fill="#9fd3d3" d="M304,512V488c18-24,24-96,24-96V352H184v40s6,72,24,96v24Z"/><polygon fill="#e28140" points="200 264 200 352 256 400 312 352 312 264 200 264"/><rect width="16" height="96" x="112" y="416" fill="#a3d3c5"/><rect width="16" height="96" x="376" y="416" fill="#a3d3c5"/><polyline fill="#231f20" stroke="#231f20" stroke-linejoin="round" stroke-width="16" points="272 512 272 440 240 440 240 512"/><path fill="#3b4c62" d="M224,384v32a8,8,0,0,0,.411,2.53l8,24A8,8,0,0,0,240,448h32a8,8,0,0,0,7.589-5.47l8-24A8,8,0,0,0,288,416V384Z"/><path fill="#f9f2ed" d="M8,472v3.864c20.241-8.384,40.86-22.091,59.316-40.548,25.857-25.857,42.4-55.956,48.029-83.316H64Z" opacity=".4"/><path fill="#79b5b4" d="M256,384c-24,8-32,56-32,56l-40-48V352h16Z"/><path fill="#79b5b4" d="M328,352v40l-40,48s-8-48-32-56l56-32Z"/><line x1="256" x2="256" y1="280" y2="304" fill="none" stroke="#231f20" stroke-linejoin="round" stroke-width="16"/><path fill="#915024" d="M200,323.212c52.244,18.922,94.943-7.19,112-20.387V272H200Z"/><path fill="#c46f35" d="M330.413,260.789l-45.919,39.359A16,16,0,0,1,274.081,304H237.919a16,16,0,0,1-10.413-3.852l-45.919-39.359A16,16,0,0,1,176,248.641V72c0-8.837,160-8.837,160,0V248.641A16,16,0,0,1,330.413,260.789Z"/><path fill="#e28140" d="M291.016,294.557l-53.421-38.852a50.121,50.121,0,0,1-20.607-42.389V66.13C193.533,67.119,176,69.075,176,72V248.641a16,16,0,0,0,5.587,12.148l40.915,35.07,5,4.289A16,16,0,0,0,237.918,304h36.162a16,16,0,0,0,10.412-3.851Z" opacity=".5"/><path fill="#562719" d="M234.343,157.657,228.687,152H192V136h40a8,8,0,0,1,5.657,2.343l8,8Z"/><path fill="#562719" d="M277.657,157.657l-11.313-11.313,8-8A8,8,0,0,1,280,136h40v16H283.313Z"/><rect width="16" height="16" x="208" y="152" fill="#3a1e13"/><rect width="16" height="16" x="288" y="152" fill="#3a1e13"/><path fill="#8f4c2e" d="M280,208H232a8,8,0,0,1-7.428-10.971l16-40,14.855,5.942L243.816,192h24.367l-11.611-29.029,14.855-5.942,16,40A8,8,0,0,1,280,208Z"/><path fill="#8f4c2e" d="M264,256H240V240h22.111l14.311-7.155,7.155,14.311-16,8A8,8,0,0,1,264,256Z"/><polygon fill="#a8602f" points="176 216 152 192 152 144 176 152 176 216"/><polygon fill="#a8602f" points="336 216 360 200 360 144 336 152 336 216"/><path fill="#562719" d="M299.563,246.656,277.578,232H242.422l-21.985,14.656-8.875-13.312,24-16A8,8,0,0,1,240,216h40a8,8,0,0,1,4.438,1.344l24,16Z"/><path fill="#562719" d="M320,208v40l-48,40H240l-48-40V208H176v40.641a16,16,0,0,0,5.587,12.148l45.919,39.359A16,16,0,0,0,237.918,304h36.162a16,16,0,0,0,10.413-3.852l45.919-39.359A16,16,0,0,0,336,248.641V208Z"/></svg>